<?xml version="1.0" encoding="utf-8"?>
<!-- Generator: Adobe Illustrator 24.0.1, SVG Export Plug-In . SVG Version: 6.00 Build 0)  -->
<svg version="1.1" id="Layer_1" xmlns="http://www.w3.org/2000/svg" xmlns:xlink="http://www.w3.org/1999/xlink" x="0px" y="0px"
	 viewBox="0 0 293 80" style="enable-background:new 0 0 293 80;" xml:space="preserve">
<style type="text/css">
	.st0{fill:#FFFFFF;}
</style>
<g id="UX">
</g>
<g id="CONTENIDO">
	<g>
		<g>
			<path class="st0" d="M50.1,14.5c0.8,0.5,1.2,1.2,1.1,2.2c-0.3,1.7-0.4,3.4-0.7,5.1c0,0.2,0,0.3-0.1,0.6c1.1-0.4,2.1-0.8,3.1-1.1
				c0.7-0.2,1.4-0.5,2.1-0.6c0.2,0,0.5,0,0.6,0.2c0.6,0.8,1.3,1.6,1.3,2.7c-5.2,1.5-10.3,3.6-14.8,6.9c0.9,0,1.6,0,2.3,0
				c2.3,0,4.5,0.2,6.7,0.9c1.6,0.5,3,0.1,4.3-0.6c1.5-0.8,2.5-2,3.2-3.5c0.5,0.1,0.9,0.3,1,0.8c0.2,0.7,0.4,1.3,0.7,2
				c0.2,0.4,0.1,0.7-0.2,1c-0.8,0.7-1.6,1.5-2.4,2.2c-0.1,0.1-0.2,0.2-0.4,0.3c0.9,0.5,1.7,1,2.5,1.5c2.2,1.5,1.8,0.7,1.9,3.4
				c0,0.5,0,1,0,1.5c0,0.2-0.2,0.5-0.3,0.8c-2.8-3.2-6.4-4.8-10.3-5.9c1.8,2.3,3.2,4.7,3.4,7.8c-1.1,0.1-2.2,0.2-3.3,0.2
				c-0.2-1.4-0.6-2.7-1.3-3.9c-1.3-2.1-3.1-3.8-5.3-5c-0.2-0.1-0.4-0.1-0.5-0.1c-2.6,0-5.1,0.5-7.3,1.9c-0.9,0.6-1.4,1.5-1.9,2.3
				c-0.9,1.6-1.7,3.2-1.6,5.1c0,0.7,0.3,1.5,0.5,2.3c0.6-0.2,1.1-0.4,1.7-0.6c2.5-0.7,5-0.6,7.6-0.1c2.8,0.5,5.4,1.6,7.8,3.1
				c0.4,0.3,1,0.3,1.5,0.4c2.8,0.2,5.5-0.4,8-1.9c0.3-0.2,0.6-0.4,1-0.6c-0.4,1.4-0.8,2.9-1.2,4.3c-0.1,0.2-0.3,0.4-0.6,0.5
				c-1.5,0.4-2.9,0.8-4.4,1.2c0.2,0.3,0.5,0.7,0.7,1.1c0.5,0.9,1,1.8,1.4,2.7c0.1,0.2,0.1,0.6-0.1,0.8c-0.3,0.6-0.7,1.1-1.1,1.7
				c-0.3,0.5-0.8,0.6-1.3,0.6c-0.9-3.9-3.3-6.6-6.8-8.6c0.3,1.2,0.7,2.2,0.9,3.2c0.9,4.1,0.7,8.1-0.7,12c-0.1,0.2-0.1,0.3-0.2,0.4
				c-1.5,1-3.1,1.9-4.9,2.6c2.1-3,2.9-6.3,3-10.1c-1.9,1.4-3.9,2.2-6.3,2.2c0-1.1,0-2.2,0-3.2c0.6-0.1,1.4-0.2,2-0.4
				c1.7-0.4,2.8-1.6,3.6-3c0.1-0.1,0.1-0.4,0.1-0.5c-0.5-1.7-1.1-3.4-2.4-4.7c-0.2-0.2-0.5-0.4-0.8-0.4c-1.9-0.3-3.8-0.4-5.7,0.1
				c-0.2,0.1-0.4,0.1-0.5,0.2c-1.1,0.4-1.2,0.7-1,1.8c0.4,3,0.9,6,1.1,9c0.3,3.5,0.3,7,0.5,10.5c0,0.5-0.1,0.7-0.6,0.7
				c-0.9,0.1-1.7,0.2-2.7,0.4c0-0.7,0-1.4,0-2c-0.1-3-0.2-6-0.4-9.1c-0.3-4.7-1-9.4-2.3-14c-0.9-3.4-2.3-6.6-3.8-9.7
				c-2.1-4.3-2.8-8.7-2.1-13.4c0.8-5.5,3.3-10.2,7.3-13.9c0.1-0.1,0.3-0.2,0.5-0.2c1.3,0.1,2.7,0.3,4,0.5c0.1,0,0.2,0,0.4,0.1
				C35.5,10,34,11.3,32.8,13c0.4-0.2,0.7-0.4,1.1-0.6c1.9-1.2,3.9-2.1,6-2.7c0.3-0.1,0.6-0.1,0.9,0c1.8,0.8,3.7,1.6,5.5,2.4
				c0.1,0,0.1,0.1,0.2,0.2c-0.4,0-0.7-0.1-1.1-0.1c-2.1-0.1-4.1,0.4-6,1.1c-2.6,1-5,2.5-7,4.4c-2,2-3.6,4.3-4,7.2
				c-0.3,2.2,0,4.3,0.7,6.3c0.8,2.1,1.7,4.1,2.6,6.2c0,0,0.1,0.1,0.2,0.2c0.3-0.5,0.5-0.9,0.8-1.3c0.8-1.2,1.7-2.4,2.5-3.5
				c0.7-0.9,0.8-1.9,1-2.9c0.6-2.8,0.1-5.5-1.4-7.9c0-0.1-0.1-0.1-0.1-0.2c0.9-0.5,1.8-1.1,2.8-1.6c1.5,2.5,2.3,5.2,2.2,8.2
				c0.2-0.1,0.3-0.1,0.4-0.1c1.9-1.2,3.8-2.5,5.8-3.7c0.2-0.2,0.5-0.4,0.6-0.7c1.2-2.8,1.6-5.7,1.5-8.6"/>
			<path class="st0" d="M9.4,35.9c-3.5,0.9-6.7,2.4-9.3,5.1c0-0.1-0.1-0.1-0.1-0.1c0-1.3,0-2.6,0.1-3.8c0-0.2,0.2-0.5,0.3-0.6
				c0.7-0.5,1.4-0.9,2.2-1.4C2.8,35,3,34.9,3.3,34.7c-0.6-0.5-1.2-1-1.8-1.5C1,32.8,0.8,32.3,1,31.6c0.3-0.9,0.6-1.8,0.8-2.7
				c0-0.2,0.1-0.3,0.2-0.5c0.7,1.4,1.6,2.6,2.9,3.3c0.9,0.6,2,0.9,3,1c0.6,0,1.1-0.2,1.7-0.3c1.6-0.2,3.1-0.4,4.7-0.5
				c0.2,0,0.4,0,0.6-0.1c-3.4-2.9-7.3-5-11.5-6.9C3.9,24,4.5,23.1,5,22.3c0.1-0.1,0.4-0.1,0.5,0c0.7,0.3,1.3,0.6,2.1,1
				c-0.1-0.5-0.1-0.9-0.2-1.2c-0.1-0.5-0.2-1-0.3-1.6C7,19.9,7,19.4,7.5,18.9c0.9-0.8,1.7-1.7,2.5-2.6c0.1,0,0.1,0,0.2,0
				c0,0.7,0,1.5,0,2.2c0.1,2.2,0.5,4.4,1.4,6.4c0.2,0.4,0.5,0.8,0.9,1.1c1.4,0.9,2.7,1.9,4.1,2.9c0.2,0.1,0.3,0.2,0.6,0.4
				c0-0.2,0-0.4,0.1-0.5c0.1-1.8,0.2-3.6,0.1-5.4c-0.1-1.1-0.4-2.3-0.8-3.3c-0.7-2-2.2-3.5-3.9-4.7c-0.2-0.1-0.4-0.3-0.6-0.5
				c0,0,0-0.1-0.1-0.2c0.9-0.6,1.7-1.2,2.6-1.7c0.1-0.1,0.4,0,0.5,0.1c1.3,1,2.3,2.1,3.2,3.4c0.1,0.1,0.2,0.3,0.4,0.5
				c0.1-0.3,0.2-0.5,0.3-0.7c0.8-2.3,1.9-4.4,3.3-6.4c0.1-0.2,0.4-0.4,0.6-0.5c1.5-0.3,3-0.6,4.5-0.9c0,0,0.1,0,0.2,0
				c-0.6,0.7-1.2,1.3-1.7,2c-2.7,3.4-4.3,7.3-4.9,11.6c-0.6,3.5-0.5,7.1,0,10.6c0,0.2,0.1,0.4,0.2,0.5c4.1,4.6,6.6,9.9,8.1,15.9
				c0.8,3.3,1.3,6.5,1.5,9.9c0.2,3.7,0.3,7.4,0.5,11.1c0,0.5-0.2,0.7-0.7,0.6c-0.9-0.1-1.7-0.1-2.7-0.2c0-1.6,0-3.2,0-4.7
				c-0.1-5-0.5-9.9-1.6-14.8c-0.4-2-0.8-2.5-3.3-2.9c-1-0.1-2,0-2.9,0c-0.2,0-0.5,0.2-0.7,0.3c-1.3,1.1-2,2.7-2.6,4.3
				c-0.3,0.8-0.1,1.3,0.3,2c1.2,1.6,2.7,2.5,4.7,2.6c0.2,0,0.3,0,0.6,0.1c-0.1,1.1-0.1,2.2-0.2,3.3c-2.3-0.1-4.3-0.7-6.2-2.3
				c0.1,3.6,0.9,6.8,2.9,9.9c-0.5-0.2-0.9-0.4-1.2-0.5c-1.1-0.6-2.3-1.2-3.4-1.9c-0.2-0.1-0.5-0.5-0.5-0.7c-1.1-3.5-1.4-7-0.7-10.6
				c0.2-1.4,0.7-2.7,1.1-4.1c0-0.1,0.1-0.3,0.1-0.6c-3.7,2-6.1,4.8-7,8.8c-0.6,0.1-1.1-0.1-1.4-0.6c-0.2-0.3-0.4-0.7-0.7-0.9
				c-0.7-0.7-0.6-1.4-0.2-2.3c0.5-0.8,0.9-1.7,1.4-2.6c0.1-0.2,0.2-0.3,0.3-0.5c-0.7-0.1-1.3-0.2-1.9-0.4c-0.9-0.3-1.9-0.6-2.8-0.9
				c-0.2-0.1-0.4-0.3-0.5-0.5c-0.4-1.2-0.7-2.4-1.1-3.6c0-0.1,0.1-0.3,0.1-0.5c0.1,0,0.3,0,0.3,0.1c1.5,1.4,3.3,2,5.3,2.3
				c1.2,0.2,2.4,0.1,3.5,0.1c0.2,0,0.5-0.1,0.7-0.3c2.5-1.7,5.2-2.8,8.1-3.3c1.7-0.3,3.5-0.4,5.2-0.1c0.1,0,0.3,0,0.5,0
				c-0.2-0.6-0.4-1.1-0.6-1.6c-1-2.3-2.3-4.4-3.8-6.3c-0.3-0.3-0.6-0.7-1-0.8c-1-0.3-2.1-0.6-3.2-0.8c-0.2,0-0.4,0-0.6,0.1
				c-2.2,1.5-4.1,3.2-5.2,5.7c-0.3,0.8-0.5,1.6-0.7,2.4c-0.1,0.3-0.2,0.4-0.5,0.4c-0.8-0.1-1.6-0.1-2.4-0.1c-0.4,0-0.4-0.2-0.4-0.5
				c0.3-2.5,1.4-4.7,2.9-6.6c0.1-0.2,0.3-0.4,0.4-0.5C9.5,36,9.4,35.9,9.4,35.9z"/>
		</g>
		<g>
			<path class="st0" d="M116.7,22.2c-0.6,0.2-1,0.6-1.2,1.2s-0.3,1.6-0.3,2.9v26.4c0,1.3,0.1,2.3,0.3,2.9c0.2,0.6,0.6,1,1.2,1.2
				s1.5,0.4,2.8,0.4v1.1c-1.6-0.1-3.9-0.2-6.8-0.2c-3.1,0-5.3,0.1-6.8,0.2v-1.1c1.3-0.1,2.2-0.2,2.8-0.4c0.6-0.2,1-0.6,1.2-1.2
				c0.2-0.6,0.3-1.6,0.3-2.9V24.2L97.3,58.7h-0.9L83,24.1v28.1c0,1.4,0.1,2.4,0.3,3.1c0.2,0.7,0.7,1.2,1.4,1.5
				c0.7,0.3,1.7,0.5,3.2,0.6v1.1c-1.3-0.1-3.1-0.2-5.5-0.2c-2.1,0-3.8,0.1-5,0.2v-1.1c1.2-0.1,2.2-0.3,2.8-0.6
				c0.6-0.3,1-0.8,1.2-1.5s0.3-1.7,0.3-3.1V26.4c0-1.3-0.1-2.3-0.3-2.9c-0.2-0.6-0.6-1-1.2-1.2s-1.5-0.4-2.8-0.4v-1.1
				c1.2,0.1,2.8,0.2,5,0.2c1.9,0,3.4-0.1,4.5-0.2l11.8,30.8l11.5-30.7h2.5c2.9,0,5.1-0.1,6.8-0.2v1.1
				C118.2,21.9,117.3,22,116.7,22.2z"/>
			<path class="st0" d="M155.7,57.4v1.1c-1.4-0.1-3.3-0.2-5.7-0.2c-3.1,0-5.3,0.1-6.8,0.2v-1.1c1.4-0.1,2.3-0.2,2.9-0.5
				s0.9-0.8,0.9-1.5c0-0.6-0.2-1.4-0.6-2.5l-3.3-8.7h-12.9l-2.2,5.6c-0.7,1.9-1.1,3.4-1.1,4.4c0,1.1,0.4,1.9,1.1,2.4
				c0.8,0.5,1.9,0.8,3.5,0.8v1.1c-2-0.1-4.1-0.2-6.1-0.2c-1.6,0-2.9,0.1-4,0.2v-1.1c1.8-0.4,3.2-2,4.2-4.6l12.6-32.3h0.9L152,54
				C152.9,56.2,154.1,57.3,155.7,57.4z M142.6,43.1l-6-15.9l-6.1,15.9H142.6z"/>
			<path class="st0" d="M197.9,20.7v1.1c-2,0.5-3.4,2-4.2,4.6l-10.1,32.3h-0.4h-0.4l-9.3-27.4L165,58.7h-0.4H164l-11.3-33.5
				c-0.7-2.2-2-3.3-3.7-3.4v-1.1c1.5,0.1,3.4,0.2,5.7,0.2c2.6,0,4.5-0.1,5.8-0.2v1.1c-1,0.1-1.6,0.2-2,0.5s-0.6,0.7-0.6,1.3
				c0,0.6,0.2,1.4,0.6,2.6l7.8,23.7l6.5-20.6l-1.4-4.2c-0.7-2.2-1.8-3.3-3.2-3.4v-1.1c1.3,0.1,3,0.2,5.2,0.2c3.1,0,5.3-0.1,6.8-0.2
				v1.1c-1.4,0.1-2.3,0.2-2.8,0.5c-0.5,0.2-0.8,0.7-0.8,1.5c0,0.6,0.2,1.5,0.5,2.6l7.7,23.7l6.6-20.6c0.6-1.7,0.9-3.2,0.9-4.3
				c0-1.2-0.4-2-1.1-2.5c-0.7-0.5-1.9-0.7-3.5-0.8v-1.1c2,0.1,4.1,0.2,6.1,0.2C195.5,20.9,196.8,20.8,197.9,20.7z"/>
			<path class="st0" d="M232.8,21.8c-1.2,0.1-2.2,0.3-2.8,0.6c-0.6,0.3-1,0.8-1.2,1.5s-0.3,1.7-0.3,3.1v16c0,2.6-0.2,4.7-0.5,6.6
				c-0.3,1.8-0.9,3.4-1.7,4.7c-0.9,1.5-2.2,2.7-3.9,3.6c-1.7,0.9-3.7,1.3-5.9,1.3c-3.9,0-6.9-1-9-2.9c-1.6-1.5-2.6-3.1-3.2-5
				s-0.8-4.6-0.8-8.3V26.4c0-1.3-0.1-2.3-0.3-2.9s-0.6-1-1.2-1.2c-0.6-0.2-1.5-0.4-2.8-0.4v-1.1c1.5,0.1,3.8,0.2,6.8,0.2
				c2.9,0,5.1-0.1,6.8-0.2v1.1c-1.3,0.1-2.2,0.2-2.8,0.4c-0.6,0.2-1,0.6-1.2,1.2s-0.3,1.6-0.3,2.9V44c0,2.8,0.2,5.2,0.6,7.1
				c0.4,1.9,1.2,3.4,2.4,4.5s3,1.7,5.4,1.7c3.8,0,6.4-1.2,8-3.6c1.5-2.4,2.3-5.8,2.3-10.2V26.9c0-1.9-0.3-3.2-1-3.9
				c-0.7-0.7-2-1.1-3.8-1.2v-1.1c1.3,0.1,3.1,0.2,5.5,0.2c2.1,0,3.8-0.1,5-0.2v1.1H232.8z"/>
			<path class="st0" d="M270,21.8c-1.2,0.1-2.2,0.3-2.8,0.6c-0.6,0.3-1,0.8-1.2,1.5s-0.3,1.7-0.3,3.1v31.8h-1.2L242,24.1v28.1
				c0,1.4,0.1,2.4,0.3,3.1c0.2,0.7,0.7,1.2,1.4,1.5s1.7,0.5,3.2,0.6v1.1c-1.3-0.1-3.1-0.2-5.5-0.2c-2.1,0-3.8,0.1-5,0.2v-1.1
				c1.2-0.1,2.2-0.3,2.8-0.6s1-0.8,1.2-1.5s0.3-1.7,0.3-3.1V26.4c0-1.3-0.1-2.3-0.3-2.9s-0.6-1-1.2-1.2c-0.6-0.2-1.5-0.4-2.8-0.4
				v-1.1c1.2,0.1,2.8,0.2,5,0.2c1.6,0,3-0.1,4.2-0.2l18.9,29V26.9c0-1.4-0.1-2.4-0.3-3.1c-0.2-0.7-0.7-1.2-1.4-1.5
				c-0.7-0.3-1.7-0.5-3.2-0.6v-1.1c1.3,0.1,3.1,0.2,5.5,0.2c2.1,0,3.8-0.1,5-0.2v1.2H270z"/>
		</g>
	</g>
</g>
</svg>
